<svg id="svg" xmlns="http://www.w3.org/2000/svg" xmlns:xlink="http://www.w3.org/1999/xlink" width="400" height="400" viewBox="0, 0, 400,400"><g id="svgg"><path id="path0" d="M48.000 100.000 C 48.000 129.333,51.487 152.000,56.000 152.000 C 60.400 152.000,64.000 132.200,64.000 108.000 L 64.000 64.000 108.000 64.000 C 132.200 64.000,152.000 60.400,152.000 56.000 C 152.000 51.487,129.333 48.000,100.000 48.000 L 48.000 48.000 48.000 100.000 M248.000 56.000 C 248.000 60.400,267.800 64.000,292.000 64.000 L 336.000 64.000 336.000 108.000 C 336.000 132.200,339.600 152.000,344.000 152.000 C 348.513 152.000,352.000 129.333,352.000 100.000 L 352.000 48.000 300.000 48.000 C 270.667 48.000,248.000 51.487,248.000 56.000 M48.000 308.000 L 48.000 360.000 100.000 360.000 C 129.333 360.000,152.000 356.513,152.000 352.000 C 152.000 347.600,132.200 344.000,108.000 344.000 L 64.000 344.000 64.000 300.000 C 64.000 275.800,60.400 256.000,56.000 256.000 C 51.487 256.000,48.000 278.667,48.000 308.000 M336.000 300.000 L 336.000 344.000 292.000 344.000 C 267.800 344.000,248.000 347.600,248.000 352.000 C 248.000 356.513,270.667 360.000,300.000 360.000 L 352.000 360.000 352.000 308.000 C 352.000 278.667,348.513 256.000,344.000 256.000 C 339.600 256.000,336.000 275.800,336.000 300.000 " stroke="none" fill="#000000" fill-rule="evenodd"></path></g></svg>