<svg fill="#000000" xmlns="http://www.w3.org/2000/svg" viewBox="0 0 50 50" width="50px" height="50px"><path d="M 9 3 C 5.699219 3 3 5.699219 3 9 C 3 12.300781 5.699219 15 9 15 C 12.300781 15 15 12.300781 15 9 C 15 5.699219 12.300781 3 9 3 Z M 25 3 C 21.699219 3 19 5.699219 19 9 C 19 12.300781 21.699219 15 25 15 C 28.300781 15 31 12.300781 31 9 C 31 5.699219 28.300781 3 25 3 Z M 41 3 C 37.699219 3 35 5.699219 35 9 C 35 12.300781 37.699219 15 41 15 C 44.300781 15 47 12.300781 47 9 C 47 5.699219 44.300781 3 41 3 Z M 25 19 C 21.699219 19 19 21.699219 19 25 C 19 28.300781 21.699219 31 25 31 C 28.300781 31 31 28.300781 31 25 C 31 21.699219 28.300781 19 25 19 Z M 41 19 C 37.699219 19 35 21.699219 35 25 C 35 28.300781 37.699219 31 41 31 C 44.300781 31 47 28.300781 47 25 C 47 21.699219 44.300781 19 41 19 Z M 41 35 C 37.699219 35 35 37.699219 35 41 C 35 44.300781 37.699219 47 41 47 C 44.300781 47 47 44.300781 47 41 C 47 37.699219 44.300781 35 41 35 Z"/></svg>