<?xml version="1.0" standalone="no"?>
<!DOCTYPE svg PUBLIC "-//W3C//DTD SVG 20010904//EN"
 "http://www.w3.org/TR/2001/REC-SVG-20010904/DTD/svg10.dtd">
<svg version="1.0" xmlns="http://www.w3.org/2000/svg"
 width="344.000000pt" height="344.000000pt" viewBox="0 0 344.000000 344.000000"
 preserveAspectRatio="xMidYMid meet">

<g transform="translate(0.000000,344.000000) scale(0.100000,-0.100000)"
fill="#000000" stroke="none">
<path d="M1506 3394 c-317 -49 -597 -197 -821 -436 -182 -193 -298 -414 -357
-678 -30 -137 -33 -424 -5 -563 58 -287 187 -528 392 -732 196 -196 289 -235
326 -137 15 39 0 69 -57 112 -281 212 -452 484 -509 807 -19 114 -19 325 0
439 79 449 414 837 851 983 306 103 660 77 953 -69 129 -65 235 -145 342 -257
130 -137 214 -275 278 -456 29 -83 221 -972 221 -1025 0 -17 -19 -45 -60 -88
-98 -101 -100 -109 -100 -384 0 -258 -5 -281 -63 -324 -25 -19 -47 -22 -205
-26 -211 -7 -250 -19 -332 -106 -76 -80 -93 -127 -98 -261 -4 -109 -3 -112 21
-137 32 -32 79 -34 107 -6 24 24 29 44 32 152 3 79 6 89 34 125 54 67 86 77
284 83 153 5 180 8 215 27 55 29 110 88 137 148 21 47 23 66 26 295 l4 245 57
60 c69 71 90 110 98 173 7 59 -171 924 -222 1079 -175 528 -619 895 -1165 963
-113 13 -275 11 -384 -6z"/>
</g>
</svg>
