<?xml version="1.0" encoding="UTF-8" standalone="no"?>
<svg xmlns:dc="http://purl.org/dc/elements/1.1/" xmlns:cc="http://creativecommons.org/ns#" xmlns:rdf="http://www.w3.org/1999/02/22-rdf-syntax-ns#" xmlns:svg="http://www.w3.org/2000/svg" xmlns="http://www.w3.org/2000/svg" xmlns:sodipodi="http://sodipodi.sourceforge.net/DTD/sodipodi-0.dtd" xmlns:inkscape="http://www.inkscape.org/namespaces/inkscape" width="64" height="64" viewBox="0 0 64.000001 64.000001" id="svg4051" version="1.1" inkscape:version="0.91 r13725" sodipodi:docname="8 graph chart up down analysis infographic statistic business.svg">
  <defs id="defs4053"/>
  <sodipodi:namedview id="base" pagecolor="#ffffff" bordercolor="#666666" borderopacity="1.0" inkscape:pageopacity="0.0" inkscape:pageshadow="2" inkscape:zoom="2.662699" inkscape:cx="-6.0047677" inkscape:cy="-9.8061632" inkscape:document-units="px" inkscape:current-layer="layer1" showgrid="true" units="px" inkscape:window-width="1366" inkscape:window-height="705" inkscape:window-x="-8" inkscape:window-y="-8" inkscape:window-maximized="1" inkscape:snap-bbox="true" inkscape:bbox-nodes="true" inkscape:bbox-paths="true" inkscape:snap-bbox-edge-midpoints="true" inkscape:snap-bbox-midpoints="true">
    <inkscape:grid type="xygrid" id="grid4077"/>
  </sodipodi:namedview>
  
  <g inkscape:label="Layer 1" inkscape:groupmode="layer" id="layer1" transform="translate(0,-988.36219)">
    <path style="color:#000000;font-style:normal;font-variant:normal;font-weight:normal;font-stretch:normal;font-size:medium;line-height:normal;font-family:sans-serif;text-indent:0;text-align:start;text-decoration:none;text-decoration-line:none;text-decoration-style:solid;text-decoration-color:#000000;letter-spacing:normal;word-spacing:normal;text-transform:none;direction:ltr;block-progression:tb;writing-mode:lr-tb;baseline-shift:baseline;text-anchor:start;white-space:normal;clip-rule:nonzero;display:inline;overflow:visible;visibility:visible;opacity:1;isolation:auto;mix-blend-mode:normal;color-interpolation:sRGB;color-interpolation-filters:linearRGB;solid-color:#000000;solid-opacity:1;fill:#000000;fill-opacity:1;fill-rule:nonzero;stroke:none;stroke-width:1;stroke-linecap:round;stroke-linejoin:round;stroke-miterlimit:4;stroke-dasharray:none;stroke-dashoffset:0;stroke-opacity:1;color-rendering:auto;image-rendering:auto;shape-rendering:auto;text-rendering:auto;enable-background:accumulate" d="M 28.517578 12 A 0.50005 0.50005 0 0 0 28.017578 12.5 L 28.017578 58 L 25.017578 58 L 25.017578 23.5 A 0.50005 0.50005 0 0 0 24.517578 23 L 16.517578 23 A 0.50005 0.50005 0 0 0 16.017578 23.5 L 16.017578 58 L 13.017578 58 L 13.017578 38.5 A 0.50005 0.50005 0 0 0 12.517578 38 L 4.5175781 38 A 0.50005 0.50005 0 0 0 4.0175781 38.5 L 4.0175781 58 L 2.5253906 58 A 0.50004994 0.50004994 0 1 0 2.5253906 59 L 4.4414062 59 A 0.50005 0.50005 0 0 0 4.5859375 59 L 12.441406 59 A 0.50005 0.50005 0 0 0 12.585938 59 L 16.441406 59 A 0.50005 0.50005 0 0 0 16.585938 59 L 24.441406 59 A 0.50005 0.50005 0 0 0 24.585938 59 L 28.441406 59 A 0.50005 0.50005 0 0 0 28.585938 59 L 36.441406 59 A 0.50005 0.50005 0 0 0 36.585938 59 L 40.441406 59 A 0.50005 0.50005 0 0 0 40.585938 59 L 48.441406 59 A 0.50005 0.50005 0 0 0 48.585938 59 L 52.441406 59 A 0.50005 0.50005 0 0 0 52.585938 59 L 60.441406 59 A 0.50005 0.50005 0 0 0 60.585938 59 L 62.492188 59 A 0.50004994 0.50004994 0 1 0 62.492188 58 L 61.017578 58 L 61.017578 20.5 A 0.50005 0.50005 0 0 0 60.517578 20 L 52.517578 20 A 0.50005 0.50005 0 0 0 52.017578 20.5 L 52.017578 58 L 49.017578 58 L 49.017578 33.5 A 0.50005 0.50005 0 0 0 48.517578 33 L 40.517578 33 A 0.50005 0.50005 0 0 0 40.017578 33.5 L 40.017578 58 L 37.017578 58 L 37.017578 12.5 A 0.50005 0.50005 0 0 0 36.517578 12 L 28.517578 12 z M 29.017578 13 L 36.017578 13 L 36.017578 58 L 29.017578 58 L 29.017578 13 z M 53.017578 21 L 60.017578 21 L 60.017578 58 L 53.017578 58 L 53.017578 21 z M 17.017578 24 L 24.017578 24 L 24.017578 58 L 17.017578 58 L 17.017578 24 z M 41.017578 34 L 48.017578 34 L 48.017578 58 L 41.017578 58 L 41.017578 34 z M 5.0175781 39 L 12.017578 39 L 12.017578 58 L 5.0175781 58 L 5.0175781 39 z " transform="translate(0,988.36219)" id="rect7661"/>
  </g>

	<metadata>
		<rdf:RDF xmlns:rdf="http://www.w3.org/1999/02/22-rdf-syntax-ns#" xmlns:rdfs="http://www.w3.org/2000/01/rdf-schema#" xmlns:dc="http://purl.org/dc/elements/1.1/">
			<rdf:Description about="https://iconscout.com/legal#licenses" dc:title="8 graph chart up down analysis infographic statistic business" dc:description="8 graph chart up down analysis infographic statistic business" dc:publisher="Iconscout" dc:date="2017-02-02" dc:format="image/svg+xml" dc:language="en">
				<dc:creator>
					<rdf:Bag>
						<rdf:li>Jemis Mali</rdf:li>
					</rdf:Bag>
				</dc:creator>
			</rdf:Description>
		</rdf:RDF>
    </metadata></svg>
